# xmcd
#
# Track frame offsets:
#	150
#	15504
#	31959
#	48932
#	64442
#	79504
#	94143
#	109199
#	123005
#	138819
#	154822
#	169927
#
# Disc length: 2475 seconds
#
# Revision: 1
# Processed by: cddbd v1.5.2PL0 Copyright (c) Steve Scherf et al.
# Submitted via: audiograbber 1.83.01
#
DISCID=9009a90c
DTITLE=Cole Swindell - All Of It
DYEAR=2018
DGENRE=Country
TTITLE0=Love You Too Late
TTITLE1=All Of It
TTITLE2=Somebody's Been Drinkin'
TTITLE3=Sounded Good Last Night
TTITLE4=Break Up In The End
TTITLE5=I'll Be Your Small Town
TTITLE6=The Ones Who Got Me Here
TTITLE7=20 In A Chevy
TTITLE8=Reason To Drink
TTITLE9=Her
TTITLE10=Both Sides Of The Mississippi
TTITLE11=Dad's Old Number
EXTD=
EXTT0=
EXTT1=
EXTT2=
EXTT3=
EXTT4=
EXTT5=
EXTT6=
EXTT7=
EXTT8=
EXTT9=
EXTT10=
EXTT11=
PLAYORDER=
